<svg version="1.1" xmlns="http://www.w3.org/2000/svg" xmlns:xlink="http://www.w3.org/1999/xlink" width="703.0908203125" height="876"><defs/><g><text fill="#eeeeee" stroke="none" font-family="Arial" font-size="24px" font-style="normal" font-weight="normal" text-decoration="none" x="0" y="0">UNREGISTERED</text><text fill="#eeeeee" stroke="none" font-family="Arial" font-size="24px" font-style="normal" font-weight="normal" text-decoration="none" x="0" y="30">UNREGISTERED</text><text fill="#eeeeee" stroke="none" font-family="Arial" font-size="24px" font-style="normal" font-weight="normal" text-decoration="none" x="0" y="60">UNREGISTERED</text><text fill="#eeeeee" stroke="none" font-family="Arial" font-size="24px" font-style="normal" font-weight="normal" text-decoration="none" x="0" y="90">UNREGISTERED</text><text fill="#eeeeee" stroke="none" font-family="Arial" font-size="24px" font-style="normal" font-weight="normal" text-decoration="none" x="0" y="120">UNREGISTERED</text><text fill="#eeeeee" stroke="none" font-family="Arial" font-size="24px" font-style="normal" font-weight="normal" text-decoration="none" x="0" y="150">UNREGISTERED</text><text fill="#eeeeee" stroke="none" font-family="Arial" font-size="24px" font-style="normal" font-weight="normal" text-decoration="none" x="0" y="180">UNREGISTERED</text><text fill="#eeeeee" stroke="none" font-family="Arial" font-size="24px" font-style="normal" font-weight="normal" text-decoration="none" x="0" y="210">UNREGISTERED</text><text fill="#eeeeee" stroke="none" font-family="Arial" font-size="24px" font-style="normal" font-weight="normal" text-decoration="none" x="0" y="240">UNREGISTERED</text><text fill="#eeeeee" stroke="none" font-family="Arial" font-size="24px" font-style="normal" font-weight="normal" text-decoration="none" x="0" y="270">UNREGISTERED</text><text fill="#eeeeee" stroke="none" font-family="Arial" font-size="24px" font-style="normal" font-weight="normal" text-decoration="none" x="0" y="300">UNREGISTERED</text><text fill="#eeeeee" stroke="none" font-family="Arial" font-size="24px" font-style="normal" font-weight="normal" text-decoration="none" x="0" y="330">UNREGISTERED</text><text fill="#eeeeee" stroke="none" font-family="Arial" font-size="24px" font-style="normal" font-weight="normal" text-decoration="none" x="0" y="360">UNREGISTERED</text><text fill="#eeeeee" stroke="none" font-family="Arial" font-size="24px" font-style="normal" font-weight="normal" text-decoration="none" x="0" y="390">UNREGISTERED</text><text fill="#eeeeee" stroke="none" font-family="Arial" font-size="24px" font-style="normal" font-weight="normal" text-decoration="none" x="0" y="420">UNREGISTERED</text><text fill="#eeeeee" stroke="none" font-family="Arial" font-size="24px" font-style="normal" font-weight="normal" text-decoration="none" x="0" y="450">UNREGISTERED</text><text fill="#eeeeee" stroke="none" font-family="Arial" font-size="24px" font-style="normal" font-weight="normal" text-decoration="none" x="0" y="480">UNREGISTERED</text><text fill="#eeeeee" stroke="none" font-family="Arial" font-size="24px" font-style="normal" font-weight="normal" text-decoration="none" x="0" y="510">UNREGISTERED</text><text fill="#eeeeee" stroke="none" font-family="Arial" font-size="24px" font-style="normal" font-weight="normal" text-decoration="none" x="0" y="540">UNREGISTERED</text><text fill="#eeeeee" stroke="none" font-family="Arial" font-size="24px" font-style="normal" font-weight="normal" text-decoration="none" x="0" y="570">UNREGISTERED</text><text fill="#eeeeee" stroke="none" font-family="Arial" font-size="24px" font-style="normal" font-weight="normal" text-decoration="none" x="0" y="600">UNREGISTERED</text><text fill="#eeeeee" stroke="none" font-family="Arial" font-size="24px" font-style="normal" font-weight="normal" text-decoration="none" x="0" y="630">UNREGISTERED</text><text fill="#eeeeee" stroke="none" font-family="Arial" font-size="24px" font-style="normal" font-weight="normal" text-decoration="none" x="0" y="660">UNREGISTERED</text><text fill="#eeeeee" stroke="none" font-family="Arial" font-size="24px" font-style="normal" font-weight="normal" text-decoration="none" x="0" y="690">UNREGISTERED</text><text fill="#eeeeee" stroke="none" font-family="Arial" font-size="24px" font-style="normal" font-weight="normal" text-decoration="none" x="0" y="720">UNREGISTERED</text><text fill="#eeeeee" stroke="none" font-family="Arial" font-size="24px" font-style="normal" font-weight="normal" text-decoration="none" x="0" y="750">UNREGISTERED</text><text fill="#eeeeee" stroke="none" font-family="Arial" font-size="24px" font-style="normal" font-weight="normal" text-decoration="none" x="0" y="780">UNREGISTERED</text><text fill="#eeeeee" stroke="none" font-family="Arial" font-size="24px" font-style="normal" font-weight="normal" text-decoration="none" x="0" y="810">UNREGISTERED</text><text fill="#eeeeee" stroke="none" font-family="Arial" font-size="24px" font-style="normal" font-weight="normal" text-decoration="none" x="0" y="840">UNREGISTERED</text><text fill="#eeeeee" stroke="none" font-family="Arial" font-size="24px" font-style="normal" font-weight="normal" text-decoration="none" x="0" y="870">UNREGISTERED</text><text fill="#eeeeee" stroke="none" font-family="Arial" font-size="24px" font-style="normal" font-weight="normal" text-decoration="none" x="200" y="0">UNREGISTERED</text><text fill="#eeeeee" stroke="none" font-family="Arial" font-size="24px" font-style="normal" font-weight="normal" text-decoration="none" x="200" y="30">UNREGISTERED</text><text fill="#eeeeee" stroke="none" font-family="Arial" font-size="24px" font-style="normal" font-weight="normal" text-decoration="none" x="200" y="60">UNREGISTERED</text><text fill="#eeeeee" stroke="none" font-family="Arial" font-size="24px" font-style="normal" font-weight="normal" text-decoration="none" x="200" y="90">UNREGISTERED</text><text fill="#eeeeee" stroke="none" font-family="Arial" font-size="24px" font-style="normal" font-weight="normal" text-decoration="none" x="200" y="120">UNREGISTERED</text><text fill="#eeeeee" stroke="none" font-family="Arial" font-size="24px" font-style="normal" font-weight="normal" text-decoration="none" x="200" y="150">UNREGISTERED</text><text fill="#eeeeee" stroke="none" font-family="Arial" font-size="24px" font-style="normal" font-weight="normal" text-decoration="none" x="200" y="180">UNREGISTERED</text><text fill="#eeeeee" stroke="none" font-family="Arial" font-size="24px" font-style="normal" font-weight="normal" text-decoration="none" x="200" y="210">UNREGISTERED</text><text fill="#eeeeee" stroke="none" font-family="Arial" font-size="24px" font-style="normal" font-weight="normal" text-decoration="none" x="200" y="240">UNREGISTERED</text><text fill="#eeeeee" stroke="none" font-family="Arial" font-size="24px" font-style="normal" font-weight="normal" text-decoration="none" x="200" y="270">UNREGISTERED</text><text fill="#eeeeee" stroke="none" font-family="Arial" font-size="24px" font-style="normal" font-weight="normal" text-decoration="none" x="200" y="300">UNREGISTERED</text><text fill="#eeeeee" stroke="none" font-family="Arial" font-size="24px" font-style="normal" font-weight="normal" text-decoration="none" x="200" y="330">UNREGISTERED</text><text fill="#eeeeee" stroke="none" font-family="Arial" font-size="24px" font-style="normal" font-weight="normal" text-decoration="none" x="200" y="360">UNREGISTERED</text><text fill="#eeeeee" stroke="none" font-family="Arial" font-size="24px" font-style="normal" font-weight="normal" text-decoration="none" x="200" y="390">UNREGISTERED</text><text fill="#eeeeee" stroke="none" font-family="Arial" font-size="24px" font-style="normal" font-weight="normal" text-decoration="none" x="200" y="420">UNREGISTERED</text><text fill="#eeeeee" stroke="none" font-family="Arial" font-size="24px" font-style="normal" font-weight="normal" text-decoration="none" x="200" y="450">UNREGISTERED</text><text fill="#eeeeee" stroke="none" font-family="Arial" font-size="24px" font-style="normal" font-weight="normal" text-decoration="none" x="200" y="480">UNREGISTERED</text><text fill="#eeeeee" stroke="none" font-family="Arial" font-size="24px" font-style="normal" font-weight="normal" text-decoration="none" x="200" y="510">UNREGISTERED</text><text fill="#eeeeee" stroke="none" font-family="Arial" font-size="24px" font-style="normal" font-weight="normal" text-decoration="none" x="200" y="540">UNREGISTERED</text><text fill="#eeeeee" stroke="none" font-family="Arial" font-size="24px" font-style="normal" font-weight="normal" text-decoration="none" x="200" y="570">UNREGISTERED</text><text fill="#eeeeee" stroke="none" font-family="Arial" font-size="24px" font-style="normal" font-weight="normal" text-decoration="none" x="200" y="600">UNREGISTERED</text><text fill="#eeeeee" stroke="none" font-family="Arial" font-size="24px" font-style="normal" font-weight="normal" text-decoration="none" x="200" y="630">UNREGISTERED</text><text fill="#eeeeee" stroke="none" font-family="Arial" font-size="24px" font-style="normal" font-weight="normal" text-decoration="none" x="200" y="660">UNREGISTERED</text><text fill="#eeeeee" stroke="none" font-family="Arial" font-size="24px" font-style="normal" font-weight="normal" text-decoration="none" x="200" y="690">UNREGISTERED</text><text fill="#eeeeee" stroke="none" font-family="Arial" font-size="24px" font-style="normal" font-weight="normal" text-decoration="none" x="200" y="720">UNREGISTERED</text><text fill="#eeeeee" stroke="none" font-family="Arial" font-size="24px" font-style="normal" font-weight="normal" text-decoration="none" x="200" y="750">UNREGISTERED</text><text fill="#eeeeee" stroke="none" font-family="Arial" font-size="24px" font-style="normal" font-weight="normal" text-decoration="none" x="200" y="780">UNREGISTERED</text><text fill="#eeeeee" stroke="none" font-family="Arial" font-size="24px" font-style="normal" font-weight="normal" text-decoration="none" x="200" y="810">UNREGISTERED</text><text fill="#eeeeee" stroke="none" font-family="Arial" font-size="24px" font-style="normal" font-weight="normal" text-decoration="none" x="200" y="840">UNREGISTERED</text><text fill="#eeeeee" stroke="none" font-family="Arial" font-size="24px" font-style="normal" font-weight="normal" text-decoration="none" x="200" y="870">UNREGISTERED</text><text fill="#eeeeee" stroke="none" font-family="Arial" font-size="24px" font-style="normal" font-weight="normal" text-decoration="none" x="400" y="0">UNREGISTERED</text><text fill="#eeeeee" stroke="none" font-family="Arial" font-size="24px" font-style="normal" font-weight="normal" text-decoration="none" x="400" y="30">UNREGISTERED</text><text fill="#eeeeee" stroke="none" font-family="Arial" font-size="24px" font-style="normal" font-weight="normal" text-decoration="none" x="400" y="60">UNREGISTERED</text><text fill="#eeeeee" stroke="none" font-family="Arial" font-size="24px" font-style="normal" font-weight="normal" text-decoration="none" x="400" y="90">UNREGISTERED</text><text fill="#eeeeee" stroke="none" font-family="Arial" font-size="24px" font-style="normal" font-weight="normal" text-decoration="none" x="400" y="120">UNREGISTERED</text><text fill="#eeeeee" stroke="none" font-family="Arial" font-size="24px" font-style="normal" font-weight="normal" text-decoration="none" x="400" y="150">UNREGISTERED</text><text fill="#eeeeee" stroke="none" font-family="Arial" font-size="24px" font-style="normal" font-weight="normal" text-decoration="none" x="400" y="180">UNREGISTERED</text><text fill="#eeeeee" stroke="none" font-family="Arial" font-size="24px" font-style="normal" font-weight="normal" text-decoration="none" x="400" y="210">UNREGISTERED</text><text fill="#eeeeee" stroke="none" font-family="Arial" font-size="24px" font-style="normal" font-weight="normal" text-decoration="none" x="400" y="240">UNREGISTERED</text><text fill="#eeeeee" stroke="none" font-family="Arial" font-size="24px" font-style="normal" font-weight="normal" text-decoration="none" x="400" y="270">UNREGISTERED</text><text fill="#eeeeee" stroke="none" font-family="Arial" font-size="24px" font-style="normal" font-weight="normal" text-decoration="none" x="400" y="300">UNREGISTERED</text><text fill="#eeeeee" stroke="none" font-family="Arial" font-size="24px" font-style="normal" font-weight="normal" text-decoration="none" x="400" y="330">UNREGISTERED</text><text fill="#eeeeee" stroke="none" font-family="Arial" font-size="24px" font-style="normal" font-weight="normal" text-decoration="none" x="400" y="360">UNREGISTERED</text><text fill="#eeeeee" stroke="none" font-family="Arial" font-size="24px" font-style="normal" font-weight="normal" text-decoration="none" x="400" y="390">UNREGISTERED</text><text fill="#eeeeee" stroke="none" font-family="Arial" font-size="24px" font-style="normal" font-weight="normal" text-decoration="none" x="400" y="420">UNREGISTERED</text><text fill="#eeeeee" stroke="none" font-family="Arial" font-size="24px" font-style="normal" font-weight="normal" text-decoration="none" x="400" y="450">UNREGISTERED</text><text fill="#eeeeee" stroke="none" font-family="Arial" font-size="24px" font-style="normal" font-weight="normal" text-decoration="none" x="400" y="480">UNREGISTERED</text><text fill="#eeeeee" stroke="none" font-family="Arial" font-size="24px" font-style="normal" font-weight="normal" text-decoration="none" x="400" y="510">UNREGISTERED</text><text fill="#eeeeee" stroke="none" font-family="Arial" font-size="24px" font-style="normal" font-weight="normal" text-decoration="none" x="400" y="540">UNREGISTERED</text><text fill="#eeeeee" stroke="none" font-family="Arial" font-size="24px" font-style="normal" font-weight="normal" text-decoration="none" x="400" y="570">UNREGISTERED</text><text fill="#eeeeee" stroke="none" font-family="Arial" font-size="24px" font-style="normal" font-weight="normal" text-decoration="none" x="400" y="600">UNREGISTERED</text><text fill="#eeeeee" stroke="none" font-family="Arial" font-size="24px" font-style="normal" font-weight="normal" text-decoration="none" x="400" y="630">UNREGISTERED</text><text fill="#eeeeee" stroke="none" font-family="Arial" font-size="24px" font-style="normal" font-weight="normal" text-decoration="none" x="400" y="660">UNREGISTERED</text><text fill="#eeeeee" stroke="none" font-family="Arial" font-size="24px" font-style="normal" font-weight="normal" text-decoration="none" x="400" y="690">UNREGISTERED</text><text fill="#eeeeee" stroke="none" font-family="Arial" font-size="24px" font-style="normal" font-weight="normal" text-decoration="none" x="400" y="720">UNREGISTERED</text><text fill="#eeeeee" stroke="none" font-family="Arial" font-size="24px" font-style="normal" font-weight="normal" text-decoration="none" x="400" y="750">UNREGISTERED</text><text fill="#eeeeee" stroke="none" font-family="Arial" font-size="24px" font-style="normal" font-weight="normal" text-decoration="none" x="400" y="780">UNREGISTERED</text><text fill="#eeeeee" stroke="none" font-family="Arial" font-size="24px" font-style="normal" font-weight="normal" text-decoration="none" x="400" y="810">UNREGISTERED</text><text fill="#eeeeee" stroke="none" font-family="Arial" font-size="24px" font-style="normal" font-weight="normal" text-decoration="none" x="400" y="840">UNREGISTERED</text><text fill="#eeeeee" stroke="none" font-family="Arial" font-size="24px" font-style="normal" font-weight="normal" text-decoration="none" x="400" y="870">UNREGISTERED</text><text fill="#eeeeee" stroke="none" font-family="Arial" font-size="24px" font-style="normal" font-weight="normal" text-decoration="none" x="600" y="0">UNREGISTERED</text><text fill="#eeeeee" stroke="none" font-family="Arial" font-size="24px" font-style="normal" font-weight="normal" text-decoration="none" x="600" y="30">UNREGISTERED</text><text fill="#eeeeee" stroke="none" font-family="Arial" font-size="24px" font-style="normal" font-weight="normal" text-decoration="none" x="600" y="60">UNREGISTERED</text><text fill="#eeeeee" stroke="none" font-family="Arial" font-size="24px" font-style="normal" font-weight="normal" text-decoration="none" x="600" y="90">UNREGISTERED</text><text fill="#eeeeee" stroke="none" font-family="Arial" font-size="24px" font-style="normal" font-weight="normal" text-decoration="none" x="600" y="120">UNREGISTERED</text><text fill="#eeeeee" stroke="none" font-family="Arial" font-size="24px" font-style="normal" font-weight="normal" text-decoration="none" x="600" y="150">UNREGISTERED</text><text fill="#eeeeee" stroke="none" font-family="Arial" font-size="24px" font-style="normal" font-weight="normal" text-decoration="none" x="600" y="180">UNREGISTERED</text><text fill="#eeeeee" stroke="none" font-family="Arial" font-size="24px" font-style="normal" font-weight="normal" text-decoration="none" x="600" y="210">UNREGISTERED</text><text fill="#eeeeee" stroke="none" font-family="Arial" font-size="24px" font-style="normal" font-weight="normal" text-decoration="none" x="600" y="240">UNREGISTERED</text><text fill="#eeeeee" stroke="none" font-family="Arial" font-size="24px" font-style="normal" font-weight="normal" text-decoration="none" x="600" y="270">UNREGISTERED</text><text fill="#eeeeee" stroke="none" font-family="Arial" font-size="24px" font-style="normal" font-weight="normal" text-decoration="none" x="600" y="300">UNREGISTERED</text><text fill="#eeeeee" stroke="none" font-family="Arial" font-size="24px" font-style="normal" font-weight="normal" text-decoration="none" x="600" y="330">UNREGISTERED</text><text fill="#eeeeee" stroke="none" font-family="Arial" font-size="24px" font-style="normal" font-weight="normal" text-decoration="none" x="600" y="360">UNREGISTERED</text><text fill="#eeeeee" stroke="none" font-family="Arial" font-size="24px" font-style="normal" font-weight="normal" text-decoration="none" x="600" y="390">UNREGISTERED</text><text fill="#eeeeee" stroke="none" font-family="Arial" font-size="24px" font-style="normal" font-weight="normal" text-decoration="none" x="600" y="420">UNREGISTERED</text><text fill="#eeeeee" stroke="none" font-family="Arial" font-size="24px" font-style="normal" font-weight="normal" text-decoration="none" x="600" y="450">UNREGISTERED</text><text fill="#eeeeee" stroke="none" font-family="Arial" font-size="24px" font-style="normal" font-weight="normal" text-decoration="none" x="600" y="480">UNREGISTERED</text><text fill="#eeeeee" stroke="none" font-family="Arial" font-size="24px" font-style="normal" font-weight="normal" text-decoration="none" x="600" y="510">UNREGISTERED</text><text fill="#eeeeee" stroke="none" font-family="Arial" font-size="24px" font-style="normal" font-weight="normal" text-decoration="none" x="600" y="540">UNREGISTERED</text><text fill="#eeeeee" stroke="none" font-family="Arial" font-size="24px" font-style="normal" font-weight="normal" text-decoration="none" x="600" y="570">UNREGISTERED</text><text fill="#eeeeee" stroke="none" font-family="Arial" font-size="24px" font-style="normal" font-weight="normal" text-decoration="none" x="600" y="600">UNREGISTERED</text><text fill="#eeeeee" stroke="none" font-family="Arial" font-size="24px" font-style="normal" font-weight="normal" text-decoration="none" x="600" y="630">UNREGISTERED</text><text fill="#eeeeee" stroke="none" font-family="Arial" font-size="24px" font-style="normal" font-weight="normal" text-decoration="none" x="600" y="660">UNREGISTERED</text><text fill="#eeeeee" stroke="none" font-family="Arial" font-size="24px" font-style="normal" font-weight="normal" text-decoration="none" x="600" y="690">UNREGISTERED</text><text fill="#eeeeee" stroke="none" font-family="Arial" font-size="24px" font-style="normal" font-weight="normal" text-decoration="none" x="600" y="720">UNREGISTERED</text><text fill="#eeeeee" stroke="none" font-family="Arial" font-size="24px" font-style="normal" font-weight="normal" text-decoration="none" x="600" y="750">UNREGISTERED</text><text fill="#eeeeee" stroke="none" font-family="Arial" font-size="24px" font-style="normal" font-weight="normal" text-decoration="none" x="600" y="780">UNREGISTERED</text><text fill="#eeeeee" stroke="none" font-family="Arial" font-size="24px" font-style="normal" font-weight="normal" text-decoration="none" x="600" y="810">UNREGISTERED</text><text fill="#eeeeee" stroke="none" font-family="Arial" font-size="24px" font-style="normal" font-weight="normal" text-decoration="none" x="600" y="840">UNREGISTERED</text><text fill="#eeeeee" stroke="none" font-family="Arial" font-size="24px" font-style="normal" font-weight="normal" text-decoration="none" x="600" y="870">UNREGISTERED</text><g transform="translate(-158,-110) scale(1,1)"><rect fill="#ffffff" stroke="none" x="168" y="120" width="115.0908203125" height="21"/></g><g transform="translate(-158,-110) scale(1,1)"><path fill="none" stroke="#000000" d="M 168 120 L 283.0908203125 120 L 283.0908203125 141 L 168 141 L 168 120 Z Z" stroke-miterlimit="10" stroke-width="2"/></g><g transform="translate(-158,-110) scale(1,1)"><path fill="none" stroke="#000000" d="M 168 944 L 168 120 L 283.0908203125 120 L 283.0908203125 944" stroke-miterlimit="10" stroke-width="2"/></g><g transform="translate(-158,-110) scale(1,1)"><g><path fill="none" stroke="none"/><text fill="#000000" stroke="none" font-family="Arial" font-size="13px" font-style="normal" font-weight="normal" text-decoration="none" x="212.54541015625" y="137">用户</text></g></g><g transform="translate(-158,-110) scale(1,1)"><rect fill="#ffffff" stroke="none" x="440" y="120" width="115.0908203125" height="21"/></g><g transform="translate(-158,-110) scale(1,1)"><path fill="none" stroke="#000000" d="M 440 120 L 555.0908203125 120 L 555.0908203125 141 L 440 141 L 440 120 Z Z" stroke-miterlimit="10" stroke-width="2"/></g><g transform="translate(-158,-110) scale(1,1)"><path fill="none" stroke="#000000" d="M 440 928 L 440 120 L 555.0908203125 120 L 555.0908203125 928" stroke-miterlimit="10" stroke-width="2"/></g><g transform="translate(-158,-110) scale(1,1)"><g><path fill="none" stroke="none"/><text fill="#000000" stroke="none" font-family="Arial" font-size="13px" font-style="normal" font-weight="normal" text-decoration="none" x="484.54541015625" y="137">系统</text></g></g><g transform="translate(-158,-110) scale(1,1)"><rect fill="#ffffff" stroke="none" x="736" y="120" width="115.0908203125" height="21"/></g><g transform="translate(-158,-110) scale(1,1)"><path fill="none" stroke="#000000" d="M 736 120 L 851.0908203125 120 L 851.0908203125 141 L 736 141 L 736 120 Z Z" stroke-miterlimit="10" stroke-width="2"/></g><g transform="translate(-158,-110) scale(1,1)"><path fill="none" stroke="#000000" d="M 736 976 L 736 120 L 851.0908203125 120 L 851.0908203125 976" stroke-miterlimit="10" stroke-width="2"/></g><g transform="translate(-158,-110) scale(1,1)"><g><path fill="none" stroke="none"/><text fill="#000000" stroke="none" font-family="Arial" font-size="13px" font-style="normal" font-weight="normal" text-decoration="none" x="774.04541015625" y="137">快递员</text></g></g><g transform="translate(-158,-110) scale(1,1)"><path fill="#C0C0C0" stroke="none" d="M 231 184.5 C 231 179.2532944 235.2532944 175 240.5 175 C 245.7467056 175 250 179.2532944 250 184.5 C 250 189.7467056 245.7467056 194 240.5 194 C 235.2532944 194 231 189.7467056 231 184.5 Z" opacity="0.2"/></g><g transform="translate(-158,-110) scale(1,1)"><path fill="#000000" stroke="none" d="M 224 177.5 C 224 172.2532944 228.2532944 168 233.5 168 C 238.7467056 168 243 172.2532944 243 177.5 C 243 182.7467056 238.7467056 187 233.5 187 C 228.2532944 187 224 182.7467056 224 177.5 Z"/></g><g transform="translate(-158,-110) scale(1,1)"><path fill="#C0C0C0" stroke="none" d="M 217 239 L 256 239 Q 266 239 266 249 L 266 269 Q 266 279 256 279 L 217 279 Q 207 279 207 269 L 207 249 Q 207 239 217 239 Z" opacity="0.2"/></g><g transform="translate(-158,-110) scale(1,1)"><path fill="#ffffff" stroke="none" d="M 210 232 L 249 232 Q 259 232 259 242 L 259 262 Q 259 272 249 272 L 210 272 Q 200 272 200 262 L 200 242 Q 200 232 210 232 Z"/></g><g transform="translate(-158,-110) scale(1,1)"><path fill="none" stroke="#000000" d="M 210 232 L 249 232 Q 259 232 259 242 L 259 262 Q 259 272 249 272 L 210 272 Q 200 272 200 262 L 200 242 Q 200 232 210 232 Z" stroke-miterlimit="10"/></g><g transform="translate(-158,-110) scale(1,1)"><g><path fill="none" stroke="none"/><text fill="#000000" stroke="none" font-family="Arial" font-size="13px" font-style="normal" font-weight="bold" text-decoration="none" x="216.5" y="251.5">购物</text></g></g><g transform="translate(-158,-110) scale(1,1)"><path fill="#C0C0C0" stroke="none" d="M 481 239 L 522 239 Q 532 239 532 249 L 532 269 Q 532 279 522 279 L 481 279 Q 471 279 471 269 L 471 249 Q 471 239 481 239 Z" opacity="0.2"/></g><g transform="translate(-158,-110) scale(1,1)"><path fill="#ffffff" stroke="none" d="M 474 232 L 515 232 Q 525 232 525 242 L 525 262 Q 525 272 515 272 L 474 272 Q 464 272 464 262 L 464 242 Q 464 232 474 232 Z"/></g><g transform="translate(-158,-110) scale(1,1)"><path fill="none" stroke="#000000" d="M 474 232 L 515 232 Q 525 232 525 242 L 525 262 Q 525 272 515 272 L 474 272 Q 464 272 464 262 L 464 242 Q 464 232 474 232 Z" stroke-miterlimit="10"/></g><g transform="translate(-158,-110) scale(1,1)"><g><path fill="none" stroke="none"/><text fill="#000000" stroke="none" font-family="Arial" font-size="13px" font-style="normal" font-weight="bold" text-decoration="none" x="468.5" y="251.5">生成订单</text></g></g><g transform="translate(-158,-110) scale(1,1)"><path fill="none" stroke="#000000" d="M 260 252 L 463 252" stroke-miterlimit="10"/></g><g transform="translate(-158,-110) scale(1,1)"><path fill="none" stroke="#000000" d="M 452.83732514237585 256.209517756016 L 463 252 L 452.83732514237585 247.790482243984" stroke-miterlimit="10"/></g><g transform="translate(-158,-110) scale(1,1)"><g><path fill="none" stroke="none"/><text fill="#000000" stroke="none" font-family="Arial" font-size="13px" font-style="normal" font-weight="normal" text-decoration="none" x="347.5" y="243.5">下单</text></g></g><g transform="translate(-158,-110) scale(1,1)"><path fill="#C0C0C0" stroke="none" d="M 769 239 L 810 239 Q 820 239 820 249 L 820 269 Q 820 279 810 279 L 769 279 Q 759 279 759 269 L 759 249 Q 759 239 769 239 Z" opacity="0.2"/></g><g transform="translate(-158,-110) scale(1,1)"><path fill="#ffffff" stroke="none" d="M 762 232 L 803 232 Q 813 232 813 242 L 813 262 Q 813 272 803 272 L 762 272 Q 752 272 752 262 L 752 242 Q 752 232 762 232 Z"/></g><g transform="translate(-158,-110) scale(1,1)"><path fill="none" stroke="#000000" d="M 762 232 L 803 232 Q 813 232 813 242 L 813 262 Q 813 272 803 272 L 762 272 Q 752 272 752 262 L 752 242 Q 752 232 762 232 Z" stroke-miterlimit="10"/></g><g transform="translate(-158,-110) scale(1,1)"><g><path fill="none" stroke="none"/><text fill="#000000" stroke="none" font-family="Arial" font-size="13px" font-style="normal" font-weight="bold" text-decoration="none" x="769.5" y="251.5">抢单</text></g></g><g transform="translate(-158,-110) scale(1,1)"><path fill="none" stroke="#000000" d="M 526 252 L 751 252" stroke-miterlimit="10"/></g><g transform="translate(-158,-110) scale(1,1)"><path fill="none" stroke="#000000" d="M 740.8373251423759 256.209517756016 L 751 252 L 740.8373251423758 247.790482243984" stroke-miterlimit="10"/></g><g transform="translate(-158,-110) scale(1,1)"><g><path fill="none" stroke="none"/><text fill="#000000" stroke="none" font-family="Arial" font-size="13px" font-style="normal" font-weight="normal" text-decoration="none" x="611.5" y="243.5">抢单通知</text></g></g><g transform="translate(-158,-110) scale(1,1)"><path fill="#C0C0C0" stroke="none" d="M 767 347.5 L 791.5 327 L 815 347.5 L 791.5 367 L 767 347.5" opacity="0.2"/></g><g transform="translate(-158,-110) scale(1,1)"><path fill="#ffffff" stroke="none" d="M 760 340 L 784 320 L 808 340 L 784 360 L 760 340"/></g><g transform="translate(-158,-110) scale(1,1)"><path fill="none" stroke="#000000" d="M 760 340 L 784 320 L 808 340 L 784 360 L 760 340 L 760 340" stroke-miterlimit="10"/></g><g transform="translate(-158,-110) scale(1,1)"><path fill="none" stroke="#000000" d="M 782 273 L 784 319" stroke-miterlimit="10"/></g><g transform="translate(-158,-110) scale(1,1)"><path fill="none" stroke="#000000" d="M 779.3530169751094 309.02976686499363 L 784 319 L 787.764106250815 308.6640673312673" stroke-miterlimit="10"/></g><g transform="translate(-158,-110) scale(1,1)"><path fill="#C0C0C0" stroke="none" d="M 783 427.5 C 783 420.59644 788.59644 415 795.5 415 C 802.40356 415 808 420.59644 808 427.5 C 808 434.40356 802.40356 440 795.5 440 C 788.59644 440 783 434.40356 783 427.5 Z" opacity="0.2"/></g><g transform="translate(-158,-110) scale(1,1)"><path fill="none" stroke="#000000" d="M 776 420.5 C 776 413.59644 781.59644 408 788.5 408 C 795.40356 408 801 413.59644 801 420.5 C 801 427.40356 795.40356 433 788.5 433 C 781.59644 433 776 427.40356 776 420.5 Z" stroke-miterlimit="10"/></g><g transform="translate(-158,-110) scale(1,1)"><path fill="#000000" stroke="none" d="M 781 420.5 C 781 416.357864 784.357864 413 788.5 413 C 792.642136 413 796 416.357864 796 420.5 C 796 424.642136 792.642136 428 788.5 428 C 784.357864 428 781 424.642136 781 420.5 Z"/></g><g transform="translate(-158,-110) scale(1,1)"><path fill="#C0C0C0" stroke="none" d="M 473 327 L 540 327 Q 550 327 550 337 L 550 357 Q 550 367 540 367 L 473 367 Q 463 367 463 357 L 463 337 Q 463 327 473 327 Z" opacity="0.2"/></g><g transform="translate(-158,-110) scale(1,1)"><path fill="#ffffff" stroke="none" d="M 466 320 L 533 320 Q 543 320 543 330 L 543 350 Q 543 360 533 360 L 466 360 Q 456 360 456 350 L 456 330 Q 456 320 466 320 Z"/></g><g transform="translate(-158,-110) scale(1,1)"><path fill="none" stroke="#000000" d="M 466 320 L 533 320 Q 543 320 543 330 L 543 350 Q 543 360 533 360 L 466 360 Q 456 360 456 350 L 456 330 Q 456 320 466 320 Z" stroke-miterlimit="10"/></g><g transform="translate(-158,-110) scale(1,1)"><g><path fill="none" stroke="none"/><text fill="#000000" stroke="none" font-family="Arial" font-size="13px" font-style="normal" font-weight="bold" text-decoration="none" x="460.5" y="339.5">修改订单状态</text></g></g><g transform="translate(-158,-110) scale(1,1)"><path fill="none" stroke="#000000" d="M 759 340 L 544 340" stroke-miterlimit="10"/></g><g transform="translate(-158,-110) scale(1,1)"><path fill="none" stroke="#000000" d="M 554.1626748576241 335.790482243984 L 544 340 L 554.1626748576241 344.209517756016" stroke-miterlimit="10"/></g><g transform="translate(-158,-110) scale(1,1)"><g><path fill="none" stroke="none"/><text fill="#000000" stroke="none" font-family="Arial" font-size="13px" font-style="normal" font-weight="normal" text-decoration="none" x="623.5" y="361.5">抢单成功</text></g></g><g transform="translate(-158,-110) scale(1,1)"><path fill="none" stroke="#000000" d="M 785 361 L 787 407" stroke-miterlimit="10"/></g><g transform="translate(-158,-110) scale(1,1)"><path fill="none" stroke="#000000" d="M 782.3530169751094 397.02976686499363 L 787 407 L 790.764106250815 396.6640673312673" stroke-miterlimit="10"/></g><g transform="translate(-158,-110) scale(1,1)"><g><path fill="none" stroke="none"/><text fill="#000000" stroke="none" font-family="Arial" font-size="13px" font-style="normal" font-weight="normal" text-decoration="none" x="773.5" y="389.5">抢单失败</text></g></g><g transform="translate(-158,-110) scale(1,1)"><path fill="none" stroke="#000000" d="M 232 188 L 230 231" stroke-miterlimit="10"/></g><g transform="translate(-158,-110) scale(1,1)"><path fill="none" stroke="#000000" d="M 226.26720025586272 220.6527198708951 L 230 231 L 234.677143934236 221.04388004198225" stroke-miterlimit="10"/></g><g transform="translate(-158,-110) scale(1,1)"><path fill="#C0C0C0" stroke="none" d="M 481 495 L 533 495 Q 543 495 543 505 L 543 540 Q 543 550 533 550 L 481 550 Q 471 550 471 540 L 471 505 Q 471 495 481 495 Z" opacity="0.2"/></g><g transform="translate(-158,-110) scale(1,1)"><path fill="#ffffff" stroke="none" d="M 474 488 L 526 488 Q 536 488 536 498 L 536 533 Q 536 543 526 543 L 474 543 Q 464 543 464 533 L 464 498 Q 464 488 474 488 Z"/></g><g transform="translate(-158,-110) scale(1,1)"><path fill="none" stroke="#000000" d="M 474 488 L 526 488 Q 536 488 536 498 L 536 533 Q 536 543 526 543 L 474 543 Q 464 543 464 533 L 464 498 Q 464 488 474 488 Z" stroke-miterlimit="10"/></g><g transform="translate(-158,-110) scale(1,1)"><g><path fill="none" stroke="none"/><text fill="#000000" stroke="none" font-family="Arial" font-size="13px" font-style="normal" font-weight="bold" text-decoration="none" x="487" y="507.5">发单</text></g></g><g transform="translate(-158,-110) scale(1,1)"><path fill="#C0C0C0" stroke="none" d="M 769 495 L 812 495 Q 822 495 822 505 L 822 541 Q 822 551 812 551 L 769 551 Q 759 551 759 541 L 759 505 Q 759 495 769 495 Z" opacity="0.2"/></g><g transform="translate(-158,-110) scale(1,1)"><path fill="#ffffff" stroke="none" d="M 762 488 L 805 488 Q 815 488 815 498 L 815 534 Q 815 544 805 544 L 762 544 Q 752 544 752 534 L 752 498 Q 752 488 762 488 Z"/></g><g transform="translate(-158,-110) scale(1,1)"><path fill="none" stroke="#000000" d="M 762 488 L 805 488 Q 815 488 815 498 L 815 534 Q 815 544 805 544 L 762 544 Q 752 544 752 534 L 752 498 Q 752 488 762 488 Z" stroke-miterlimit="10"/></g><g transform="translate(-158,-110) scale(1,1)"><g><path fill="none" stroke="none"/><text fill="#000000" stroke="none" font-family="Arial" font-size="13px" font-style="normal" font-weight="bold" text-decoration="none" x="770.5" y="507.5">接单</text></g></g><g transform="translate(-158,-110) scale(1,1)"><path fill="none" stroke="#000000" d="M 499 361 L 500 487" stroke-miterlimit="10"/></g><g transform="translate(-158,-110) scale(1,1)"><path fill="none" stroke="#000000" d="M 495.7099612030141 476.87105301029 L 500 487 L 504.12873157780086 476.8042373723949" stroke-miterlimit="10"/></g><g transform="translate(-158,-110) scale(1,1)"><path fill="none" stroke="#000000" d="M 537 515 L 751 516" stroke-miterlimit="10"/></g><g transform="translate(-158,-110) scale(1,1)"><path fill="none" stroke="#000000" d="M 740.8177656675218 520.1619831809492 L 751 516 L 740.8571065254407 511.7430395863077" stroke-miterlimit="10"/></g><g transform="translate(-158,-110) scale(1,1)"><path fill="#C0C0C0" stroke="none" d="M 769 615 L 812 615 Q 822 615 822 625 L 822 660 Q 822 670 812 670 L 769 670 Q 759 670 759 660 L 759 625 Q 759 615 769 615 Z" opacity="0.2"/></g><g transform="translate(-158,-110) scale(1,1)"><path fill="#ffffff" stroke="none" d="M 762 608 L 805 608 Q 815 608 815 618 L 815 653 Q 815 663 805 663 L 762 663 Q 752 663 752 653 L 752 618 Q 752 608 762 608 Z"/></g><g transform="translate(-158,-110) scale(1,1)"><path fill="none" stroke="#000000" d="M 762 608 L 805 608 Q 815 608 815 618 L 815 653 Q 815 663 805 663 L 762 663 Q 752 663 752 653 L 752 618 Q 752 608 762 608 Z" stroke-miterlimit="10"/></g><g transform="translate(-158,-110) scale(1,1)"><g><path fill="none" stroke="none"/><text fill="#000000" stroke="none" font-family="Arial" font-size="13px" font-style="normal" font-weight="bold" text-decoration="none" x="770.5" y="627.5">投递</text></g></g><g transform="translate(-158,-110) scale(1,1)"><path fill="none" stroke="#000000" d="M 783 545 L 783 607" stroke-miterlimit="10"/></g><g transform="translate(-158,-110) scale(1,1)"><path fill="none" stroke="#000000" d="M 778.790482243984 596.8373251423759 L 783 607 L 787.209517756016 596.8373251423759" stroke-miterlimit="10"/></g><g transform="translate(-158,-110) scale(1,1)"><path fill="#C0C0C0" stroke="none" d="M 209 623 L 252 623 Q 262 623 262 633 L 262 668 Q 262 678 252 678 L 209 678 Q 199 678 199 668 L 199 633 Q 199 623 209 623 Z" opacity="0.2"/></g><g transform="translate(-158,-110) scale(1,1)"><path fill="#ffffff" stroke="none" d="M 202 616 L 245 616 Q 255 616 255 626 L 255 661 Q 255 671 245 671 L 202 671 Q 192 671 192 661 L 192 626 Q 192 616 202 616 Z"/></g><g transform="translate(-158,-110) scale(1,1)"><path fill="none" stroke="#000000" d="M 202 616 L 245 616 Q 255 616 255 626 L 255 661 Q 255 671 245 671 L 202 671 Q 192 671 192 661 L 192 626 Q 192 616 202 616 Z" stroke-miterlimit="10"/></g><g transform="translate(-158,-110) scale(1,1)"><g><path fill="none" stroke="none"/><text fill="#000000" stroke="none" font-family="Arial" font-size="13px" font-style="normal" font-weight="bold" text-decoration="none" x="210.5" y="635.5">收货</text></g></g><g transform="translate(-158,-110) scale(1,1)"><path fill="none" stroke="#000000" d="M 751 635 L 256 643" stroke-miterlimit="10"/></g><g transform="translate(-158,-110) scale(1,1)"><path fill="none" stroke="#000000" d="M 266.0933241562723 638.6268080906036 L 256 643 L 266.2293716101785 647.0447443010497" stroke-miterlimit="10"/></g><g transform="translate(-158,-110) scale(1,1)"><path fill="#C0C0C0" stroke="none" d="M 215 931.5 C 215 924.59644 220.59644 919 227.5 919 C 234.40356 919 240 924.59644 240 931.5 C 240 938.40356 234.40356 944 227.5 944 C 220.59644 944 215 938.40356 215 931.5 Z" opacity="0.2"/></g><g transform="translate(-158,-110) scale(1,1)"><path fill="none" stroke="#000000" d="M 208 924.5 C 208 917.59644 213.59644 912 220.5 912 C 227.40356 912 233 917.59644 233 924.5 C 233 931.40356 227.40356 937 220.5 937 C 213.59644 937 208 931.40356 208 924.5 Z" stroke-miterlimit="10"/></g><g transform="translate(-158,-110) scale(1,1)"><path fill="#000000" stroke="none" d="M 213 924.5 C 213 920.357864 216.357864 917 220.5 917 C 224.642136 917 228 920.357864 228 924.5 C 228 928.642136 224.642136 932 220.5 932 C 216.357864 932 213 928.642136 213 924.5 Z"/></g><g transform="translate(-158,-110) scale(1,1)"><path fill="#C0C0C0" stroke="none" d="M 209 743 L 252 743 Q 262 743 262 753 L 262 788 Q 262 798 252 798 L 209 798 Q 199 798 199 788 L 199 753 Q 199 743 209 743 Z" opacity="0.2"/></g><g transform="translate(-158,-110) scale(1,1)"><path fill="#ffffff" stroke="none" d="M 202 736 L 245 736 Q 255 736 255 746 L 255 781 Q 255 791 245 791 L 202 791 Q 192 791 192 781 L 192 746 Q 192 736 202 736 Z"/></g><g transform="translate(-158,-110) scale(1,1)"><path fill="none" stroke="#000000" d="M 202 736 L 245 736 Q 255 736 255 746 L 255 781 Q 255 791 245 791 L 202 791 Q 192 791 192 781 L 192 746 Q 192 736 202 736 Z" stroke-miterlimit="10"/></g><g transform="translate(-158,-110) scale(1,1)"><g><path fill="none" stroke="none"/><text fill="#000000" stroke="none" font-family="Arial" font-size="13px" font-style="normal" font-weight="bold" text-decoration="none" x="197.5" y="755.5">确认收货</text></g></g><g transform="translate(-158,-110) scale(1,1)"><path fill="none" stroke="#000000" d="M 223 672 L 223 735" stroke-miterlimit="10"/></g><g transform="translate(-158,-110) scale(1,1)"><path fill="none" stroke="#000000" d="M 218.790482243984 724.8373251423759 L 223 735 L 227.209517756016 724.8373251423759" stroke-miterlimit="10"/></g><g transform="translate(-158,-110) scale(1,1)"><path fill="none" stroke="#000000" d="M 222 792 L 220 911" stroke-miterlimit="10"/></g><g transform="translate(-158,-110) scale(1,1)"><path fill="none" stroke="#000000" d="M 215.9618537811857 900.7680219353501 L 220 911 L 224.37970049971952 900.9094983507877" stroke-miterlimit="10"/></g><g transform="translate(-158,-110) scale(1,1)"><path fill="#C0C0C0" stroke="none" d="M 769 735 L 820 735 Q 830 735 830 745 L 830 780 Q 830 790 820 790 L 769 790 Q 759 790 759 780 L 759 745 Q 759 735 769 735 Z" opacity="0.2"/></g><g transform="translate(-158,-110) scale(1,1)"><path fill="#ffffff" stroke="none" d="M 762 728 L 813 728 Q 823 728 823 738 L 823 773 Q 823 783 813 783 L 762 783 Q 752 783 752 773 L 752 738 Q 752 728 762 728 Z"/></g><g transform="translate(-158,-110) scale(1,1)"><path fill="none" stroke="#000000" d="M 762 728 L 813 728 Q 823 728 823 738 L 823 773 Q 823 783 813 783 L 762 783 Q 752 783 752 773 L 752 738 Q 752 728 762 728 Z" stroke-miterlimit="10"/></g><g transform="translate(-158,-110) scale(1,1)"><g><path fill="none" stroke="none"/><text fill="#000000" stroke="none" font-family="Arial" font-size="13px" font-style="normal" font-weight="bold" text-decoration="none" x="774.5" y="747.5">结单</text></g></g><g transform="translate(-158,-110) scale(1,1)"><path fill="#C0C0C0" stroke="none" d="M 783 923.5 C 783 916.59644 788.59644 911 795.5 911 C 802.40356 911 808 916.59644 808 923.5 C 808 930.40356 802.40356 936 795.5 936 C 788.59644 936 783 930.40356 783 923.5 Z" opacity="0.2"/></g><g transform="translate(-158,-110) scale(1,1)"><path fill="none" stroke="#000000" d="M 776 916.5 C 776 909.59644 781.59644 904 788.5 904 C 795.40356 904 801 909.59644 801 916.5 C 801 923.40356 795.40356 929 788.5 929 C 781.59644 929 776 923.40356 776 916.5 Z" stroke-miterlimit="10"/></g><g transform="translate(-158,-110) scale(1,1)"><path fill="#000000" stroke="none" d="M 781 916.5 C 781 912.357864 784.357864 909 788.5 909 C 792.642136 909 796 912.357864 796 916.5 C 796 920.642136 792.642136 924 788.5 924 C 784.357864 924 781 920.642136 781 916.5 Z"/></g><g transform="translate(-158,-110) scale(1,1)"><path fill="none" stroke="#000000" d="M 787 784 L 788 903" stroke-miterlimit="10"/></g><g transform="translate(-158,-110) scale(1,1)"><path fill="none" stroke="#000000" d="M 783.7052332529105 892.8730567994041 L 788 903 L 792.1239715193508 892.8023110996862" stroke-miterlimit="10"/></g><g transform="translate(-158,-110) scale(1,1)"><path fill="none" stroke="#000000" d="M 256 763 L 751 756" stroke-miterlimit="10"/></g><g transform="translate(-158,-110) scale(1,1)"><path fill="none" stroke="#000000" d="M 740.8978637363579 760.3527971364177 L 751 756 L 740.7788185712178 751.9346033157984" stroke-miterlimit="10"/></g></g></svg>