<svg version="1.1" xmlns="http://www.w3.org/2000/svg" xmlns:xlink="http://www.w3.org/1999/xlink" width="892" height="852"><defs/><g><text fill="#eeeeee" stroke="none" font-family="Arial" font-size="24px" font-style="normal" font-weight="normal" text-decoration="none" x="0" y="0">UNREGISTERED</text><text fill="#eeeeee" stroke="none" font-family="Arial" font-size="24px" font-style="normal" font-weight="normal" text-decoration="none" x="0" y="30">UNREGISTERED</text><text fill="#eeeeee" stroke="none" font-family="Arial" font-size="24px" font-style="normal" font-weight="normal" text-decoration="none" x="0" y="60">UNREGISTERED</text><text fill="#eeeeee" stroke="none" font-family="Arial" font-size="24px" font-style="normal" font-weight="normal" text-decoration="none" x="0" y="90">UNREGISTERED</text><text fill="#eeeeee" stroke="none" font-family="Arial" font-size="24px" font-style="normal" font-weight="normal" text-decoration="none" x="0" y="120">UNREGISTERED</text><text fill="#eeeeee" stroke="none" font-family="Arial" font-size="24px" font-style="normal" font-weight="normal" text-decoration="none" x="0" y="150">UNREGISTERED</text><text fill="#eeeeee" stroke="none" font-family="Arial" font-size="24px" font-style="normal" font-weight="normal" text-decoration="none" x="0" y="180">UNREGISTERED</text><text fill="#eeeeee" stroke="none" font-family="Arial" font-size="24px" font-style="normal" font-weight="normal" text-decoration="none" x="0" y="210">UNREGISTERED</text><text fill="#eeeeee" stroke="none" font-family="Arial" font-size="24px" font-style="normal" font-weight="normal" text-decoration="none" x="0" y="240">UNREGISTERED</text><text fill="#eeeeee" stroke="none" font-family="Arial" font-size="24px" font-style="normal" font-weight="normal" text-decoration="none" x="0" y="270">UNREGISTERED</text><text fill="#eeeeee" stroke="none" font-family="Arial" font-size="24px" font-style="normal" font-weight="normal" text-decoration="none" x="0" y="300">UNREGISTERED</text><text fill="#eeeeee" stroke="none" font-family="Arial" font-size="24px" font-style="normal" font-weight="normal" text-decoration="none" x="0" y="330">UNREGISTERED</text><text fill="#eeeeee" stroke="none" font-family="Arial" font-size="24px" font-style="normal" font-weight="normal" text-decoration="none" x="0" y="360">UNREGISTERED</text><text fill="#eeeeee" stroke="none" font-family="Arial" font-size="24px" font-style="normal" font-weight="normal" text-decoration="none" x="0" y="390">UNREGISTERED</text><text fill="#eeeeee" stroke="none" font-family="Arial" font-size="24px" font-style="normal" font-weight="normal" text-decoration="none" x="0" y="420">UNREGISTERED</text><text fill="#eeeeee" stroke="none" font-family="Arial" font-size="24px" font-style="normal" font-weight="normal" text-decoration="none" x="0" y="450">UNREGISTERED</text><text fill="#eeeeee" stroke="none" font-family="Arial" font-size="24px" font-style="normal" font-weight="normal" text-decoration="none" x="0" y="480">UNREGISTERED</text><text fill="#eeeeee" stroke="none" font-family="Arial" font-size="24px" font-style="normal" font-weight="normal" text-decoration="none" x="0" y="510">UNREGISTERED</text><text fill="#eeeeee" stroke="none" font-family="Arial" font-size="24px" font-style="normal" font-weight="normal" text-decoration="none" x="0" y="540">UNREGISTERED</text><text fill="#eeeeee" stroke="none" font-family="Arial" font-size="24px" font-style="normal" font-weight="normal" text-decoration="none" x="0" y="570">UNREGISTERED</text><text fill="#eeeeee" stroke="none" font-family="Arial" font-size="24px" font-style="normal" font-weight="normal" text-decoration="none" x="0" y="600">UNREGISTERED</text><text fill="#eeeeee" stroke="none" font-family="Arial" font-size="24px" font-style="normal" font-weight="normal" text-decoration="none" x="0" y="630">UNREGISTERED</text><text fill="#eeeeee" stroke="none" font-family="Arial" font-size="24px" font-style="normal" font-weight="normal" text-decoration="none" x="0" y="660">UNREGISTERED</text><text fill="#eeeeee" stroke="none" font-family="Arial" font-size="24px" font-style="normal" font-weight="normal" text-decoration="none" x="0" y="690">UNREGISTERED</text><text fill="#eeeeee" stroke="none" font-family="Arial" font-size="24px" font-style="normal" font-weight="normal" text-decoration="none" x="0" y="720">UNREGISTERED</text><text fill="#eeeeee" stroke="none" font-family="Arial" font-size="24px" font-style="normal" font-weight="normal" text-decoration="none" x="0" y="750">UNREGISTERED</text><text fill="#eeeeee" stroke="none" font-family="Arial" font-size="24px" font-style="normal" font-weight="normal" text-decoration="none" x="0" y="780">UNREGISTERED</text><text fill="#eeeeee" stroke="none" font-family="Arial" font-size="24px" font-style="normal" font-weight="normal" text-decoration="none" x="0" y="810">UNREGISTERED</text><text fill="#eeeeee" stroke="none" font-family="Arial" font-size="24px" font-style="normal" font-weight="normal" text-decoration="none" x="0" y="840">UNREGISTERED</text><text fill="#eeeeee" stroke="none" font-family="Arial" font-size="24px" font-style="normal" font-weight="normal" text-decoration="none" x="200" y="0">UNREGISTERED</text><text fill="#eeeeee" stroke="none" font-family="Arial" font-size="24px" font-style="normal" font-weight="normal" text-decoration="none" x="200" y="30">UNREGISTERED</text><text fill="#eeeeee" stroke="none" font-family="Arial" font-size="24px" font-style="normal" font-weight="normal" text-decoration="none" x="200" y="60">UNREGISTERED</text><text fill="#eeeeee" stroke="none" font-family="Arial" font-size="24px" font-style="normal" font-weight="normal" text-decoration="none" x="200" y="90">UNREGISTERED</text><text fill="#eeeeee" stroke="none" font-family="Arial" font-size="24px" font-style="normal" font-weight="normal" text-decoration="none" x="200" y="120">UNREGISTERED</text><text fill="#eeeeee" stroke="none" font-family="Arial" font-size="24px" font-style="normal" font-weight="normal" text-decoration="none" x="200" y="150">UNREGISTERED</text><text fill="#eeeeee" stroke="none" font-family="Arial" font-size="24px" font-style="normal" font-weight="normal" text-decoration="none" x="200" y="180">UNREGISTERED</text><text fill="#eeeeee" stroke="none" font-family="Arial" font-size="24px" font-style="normal" font-weight="normal" text-decoration="none" x="200" y="210">UNREGISTERED</text><text fill="#eeeeee" stroke="none" font-family="Arial" font-size="24px" font-style="normal" font-weight="normal" text-decoration="none" x="200" y="240">UNREGISTERED</text><text fill="#eeeeee" stroke="none" font-family="Arial" font-size="24px" font-style="normal" font-weight="normal" text-decoration="none" x="200" y="270">UNREGISTERED</text><text fill="#eeeeee" stroke="none" font-family="Arial" font-size="24px" font-style="normal" font-weight="normal" text-decoration="none" x="200" y="300">UNREGISTERED</text><text fill="#eeeeee" stroke="none" font-family="Arial" font-size="24px" font-style="normal" font-weight="normal" text-decoration="none" x="200" y="330">UNREGISTERED</text><text fill="#eeeeee" stroke="none" font-family="Arial" font-size="24px" font-style="normal" font-weight="normal" text-decoration="none" x="200" y="360">UNREGISTERED</text><text fill="#eeeeee" stroke="none" font-family="Arial" font-size="24px" font-style="normal" font-weight="normal" text-decoration="none" x="200" y="390">UNREGISTERED</text><text fill="#eeeeee" stroke="none" font-family="Arial" font-size="24px" font-style="normal" font-weight="normal" text-decoration="none" x="200" y="420">UNREGISTERED</text><text fill="#eeeeee" stroke="none" font-family="Arial" font-size="24px" font-style="normal" font-weight="normal" text-decoration="none" x="200" y="450">UNREGISTERED</text><text fill="#eeeeee" stroke="none" font-family="Arial" font-size="24px" font-style="normal" font-weight="normal" text-decoration="none" x="200" y="480">UNREGISTERED</text><text fill="#eeeeee" stroke="none" font-family="Arial" font-size="24px" font-style="normal" font-weight="normal" text-decoration="none" x="200" y="510">UNREGISTERED</text><text fill="#eeeeee" stroke="none" font-family="Arial" font-size="24px" font-style="normal" font-weight="normal" text-decoration="none" x="200" y="540">UNREGISTERED</text><text fill="#eeeeee" stroke="none" font-family="Arial" font-size="24px" font-style="normal" font-weight="normal" text-decoration="none" x="200" y="570">UNREGISTERED</text><text fill="#eeeeee" stroke="none" font-family="Arial" font-size="24px" font-style="normal" font-weight="normal" text-decoration="none" x="200" y="600">UNREGISTERED</text><text fill="#eeeeee" stroke="none" font-family="Arial" font-size="24px" font-style="normal" font-weight="normal" text-decoration="none" x="200" y="630">UNREGISTERED</text><text fill="#eeeeee" stroke="none" font-family="Arial" font-size="24px" font-style="normal" font-weight="normal" text-decoration="none" x="200" y="660">UNREGISTERED</text><text fill="#eeeeee" stroke="none" font-family="Arial" font-size="24px" font-style="normal" font-weight="normal" text-decoration="none" x="200" y="690">UNREGISTERED</text><text fill="#eeeeee" stroke="none" font-family="Arial" font-size="24px" font-style="normal" font-weight="normal" text-decoration="none" x="200" y="720">UNREGISTERED</text><text fill="#eeeeee" stroke="none" font-family="Arial" font-size="24px" font-style="normal" font-weight="normal" text-decoration="none" x="200" y="750">UNREGISTERED</text><text fill="#eeeeee" stroke="none" font-family="Arial" font-size="24px" font-style="normal" font-weight="normal" text-decoration="none" x="200" y="780">UNREGISTERED</text><text fill="#eeeeee" stroke="none" font-family="Arial" font-size="24px" font-style="normal" font-weight="normal" text-decoration="none" x="200" y="810">UNREGISTERED</text><text fill="#eeeeee" stroke="none" font-family="Arial" font-size="24px" font-style="normal" font-weight="normal" text-decoration="none" x="200" y="840">UNREGISTERED</text><text fill="#eeeeee" stroke="none" font-family="Arial" font-size="24px" font-style="normal" font-weight="normal" text-decoration="none" x="400" y="0">UNREGISTERED</text><text fill="#eeeeee" stroke="none" font-family="Arial" font-size="24px" font-style="normal" font-weight="normal" text-decoration="none" x="400" y="30">UNREGISTERED</text><text fill="#eeeeee" stroke="none" font-family="Arial" font-size="24px" font-style="normal" font-weight="normal" text-decoration="none" x="400" y="60">UNREGISTERED</text><text fill="#eeeeee" stroke="none" font-family="Arial" font-size="24px" font-style="normal" font-weight="normal" text-decoration="none" x="400" y="90">UNREGISTERED</text><text fill="#eeeeee" stroke="none" font-family="Arial" font-size="24px" font-style="normal" font-weight="normal" text-decoration="none" x="400" y="120">UNREGISTERED</text><text fill="#eeeeee" stroke="none" font-family="Arial" font-size="24px" font-style="normal" font-weight="normal" text-decoration="none" x="400" y="150">UNREGISTERED</text><text fill="#eeeeee" stroke="none" font-family="Arial" font-size="24px" font-style="normal" font-weight="normal" text-decoration="none" x="400" y="180">UNREGISTERED</text><text fill="#eeeeee" stroke="none" font-family="Arial" font-size="24px" font-style="normal" font-weight="normal" text-decoration="none" x="400" y="210">UNREGISTERED</text><text fill="#eeeeee" stroke="none" font-family="Arial" font-size="24px" font-style="normal" font-weight="normal" text-decoration="none" x="400" y="240">UNREGISTERED</text><text fill="#eeeeee" stroke="none" font-family="Arial" font-size="24px" font-style="normal" font-weight="normal" text-decoration="none" x="400" y="270">UNREGISTERED</text><text fill="#eeeeee" stroke="none" font-family="Arial" font-size="24px" font-style="normal" font-weight="normal" text-decoration="none" x="400" y="300">UNREGISTERED</text><text fill="#eeeeee" stroke="none" font-family="Arial" font-size="24px" font-style="normal" font-weight="normal" text-decoration="none" x="400" y="330">UNREGISTERED</text><text fill="#eeeeee" stroke="none" font-family="Arial" font-size="24px" font-style="normal" font-weight="normal" text-decoration="none" x="400" y="360">UNREGISTERED</text><text fill="#eeeeee" stroke="none" font-family="Arial" font-size="24px" font-style="normal" font-weight="normal" text-decoration="none" x="400" y="390">UNREGISTERED</text><text fill="#eeeeee" stroke="none" font-family="Arial" font-size="24px" font-style="normal" font-weight="normal" text-decoration="none" x="400" y="420">UNREGISTERED</text><text fill="#eeeeee" stroke="none" font-family="Arial" font-size="24px" font-style="normal" font-weight="normal" text-decoration="none" x="400" y="450">UNREGISTERED</text><text fill="#eeeeee" stroke="none" font-family="Arial" font-size="24px" font-style="normal" font-weight="normal" text-decoration="none" x="400" y="480">UNREGISTERED</text><text fill="#eeeeee" stroke="none" font-family="Arial" font-size="24px" font-style="normal" font-weight="normal" text-decoration="none" x="400" y="510">UNREGISTERED</text><text fill="#eeeeee" stroke="none" font-family="Arial" font-size="24px" font-style="normal" font-weight="normal" text-decoration="none" x="400" y="540">UNREGISTERED</text><text fill="#eeeeee" stroke="none" font-family="Arial" font-size="24px" font-style="normal" font-weight="normal" text-decoration="none" x="400" y="570">UNREGISTERED</text><text fill="#eeeeee" stroke="none" font-family="Arial" font-size="24px" font-style="normal" font-weight="normal" text-decoration="none" x="400" y="600">UNREGISTERED</text><text fill="#eeeeee" stroke="none" font-family="Arial" font-size="24px" font-style="normal" font-weight="normal" text-decoration="none" x="400" y="630">UNREGISTERED</text><text fill="#eeeeee" stroke="none" font-family="Arial" font-size="24px" font-style="normal" font-weight="normal" text-decoration="none" x="400" y="660">UNREGISTERED</text><text fill="#eeeeee" stroke="none" font-family="Arial" font-size="24px" font-style="normal" font-weight="normal" text-decoration="none" x="400" y="690">UNREGISTERED</text><text fill="#eeeeee" stroke="none" font-family="Arial" font-size="24px" font-style="normal" font-weight="normal" text-decoration="none" x="400" y="720">UNREGISTERED</text><text fill="#eeeeee" stroke="none" font-family="Arial" font-size="24px" font-style="normal" font-weight="normal" text-decoration="none" x="400" y="750">UNREGISTERED</text><text fill="#eeeeee" stroke="none" font-family="Arial" font-size="24px" font-style="normal" font-weight="normal" text-decoration="none" x="400" y="780">UNREGISTERED</text><text fill="#eeeeee" stroke="none" font-family="Arial" font-size="24px" font-style="normal" font-weight="normal" text-decoration="none" x="400" y="810">UNREGISTERED</text><text fill="#eeeeee" stroke="none" font-family="Arial" font-size="24px" font-style="normal" font-weight="normal" text-decoration="none" x="400" y="840">UNREGISTERED</text><text fill="#eeeeee" stroke="none" font-family="Arial" font-size="24px" font-style="normal" font-weight="normal" text-decoration="none" x="600" y="0">UNREGISTERED</text><text fill="#eeeeee" stroke="none" font-family="Arial" font-size="24px" font-style="normal" font-weight="normal" text-decoration="none" x="600" y="30">UNREGISTERED</text><text fill="#eeeeee" stroke="none" font-family="Arial" font-size="24px" font-style="normal" font-weight="normal" text-decoration="none" x="600" y="60">UNREGISTERED</text><text fill="#eeeeee" stroke="none" font-family="Arial" font-size="24px" font-style="normal" font-weight="normal" text-decoration="none" x="600" y="90">UNREGISTERED</text><text fill="#eeeeee" stroke="none" font-family="Arial" font-size="24px" font-style="normal" font-weight="normal" text-decoration="none" x="600" y="120">UNREGISTERED</text><text fill="#eeeeee" stroke="none" font-family="Arial" font-size="24px" font-style="normal" font-weight="normal" text-decoration="none" x="600" y="150">UNREGISTERED</text><text fill="#eeeeee" stroke="none" font-family="Arial" font-size="24px" font-style="normal" font-weight="normal" text-decoration="none" x="600" y="180">UNREGISTERED</text><text fill="#eeeeee" stroke="none" font-family="Arial" font-size="24px" font-style="normal" font-weight="normal" text-decoration="none" x="600" y="210">UNREGISTERED</text><text fill="#eeeeee" stroke="none" font-family="Arial" font-size="24px" font-style="normal" font-weight="normal" text-decoration="none" x="600" y="240">UNREGISTERED</text><text fill="#eeeeee" stroke="none" font-family="Arial" font-size="24px" font-style="normal" font-weight="normal" text-decoration="none" x="600" y="270">UNREGISTERED</text><text fill="#eeeeee" stroke="none" font-family="Arial" font-size="24px" font-style="normal" font-weight="normal" text-decoration="none" x="600" y="300">UNREGISTERED</text><text fill="#eeeeee" stroke="none" font-family="Arial" font-size="24px" font-style="normal" font-weight="normal" text-decoration="none" x="600" y="330">UNREGISTERED</text><text fill="#eeeeee" stroke="none" font-family="Arial" font-size="24px" font-style="normal" font-weight="normal" text-decoration="none" x="600" y="360">UNREGISTERED</text><text fill="#eeeeee" stroke="none" font-family="Arial" font-size="24px" font-style="normal" font-weight="normal" text-decoration="none" x="600" y="390">UNREGISTERED</text><text fill="#eeeeee" stroke="none" font-family="Arial" font-size="24px" font-style="normal" font-weight="normal" text-decoration="none" x="600" y="420">UNREGISTERED</text><text fill="#eeeeee" stroke="none" font-family="Arial" font-size="24px" font-style="normal" font-weight="normal" text-decoration="none" x="600" y="450">UNREGISTERED</text><text fill="#eeeeee" stroke="none" font-family="Arial" font-size="24px" font-style="normal" font-weight="normal" text-decoration="none" x="600" y="480">UNREGISTERED</text><text fill="#eeeeee" stroke="none" font-family="Arial" font-size="24px" font-style="normal" font-weight="normal" text-decoration="none" x="600" y="510">UNREGISTERED</text><text fill="#eeeeee" stroke="none" font-family="Arial" font-size="24px" font-style="normal" font-weight="normal" text-decoration="none" x="600" y="540">UNREGISTERED</text><text fill="#eeeeee" stroke="none" font-family="Arial" font-size="24px" font-style="normal" font-weight="normal" text-decoration="none" x="600" y="570">UNREGISTERED</text><text fill="#eeeeee" stroke="none" font-family="Arial" font-size="24px" font-style="normal" font-weight="normal" text-decoration="none" x="600" y="600">UNREGISTERED</text><text fill="#eeeeee" stroke="none" font-family="Arial" font-size="24px" font-style="normal" font-weight="normal" text-decoration="none" x="600" y="630">UNREGISTERED</text><text fill="#eeeeee" stroke="none" font-family="Arial" font-size="24px" font-style="normal" font-weight="normal" text-decoration="none" x="600" y="660">UNREGISTERED</text><text fill="#eeeeee" stroke="none" font-family="Arial" font-size="24px" font-style="normal" font-weight="normal" text-decoration="none" x="600" y="690">UNREGISTERED</text><text fill="#eeeeee" stroke="none" font-family="Arial" font-size="24px" font-style="normal" font-weight="normal" text-decoration="none" x="600" y="720">UNREGISTERED</text><text fill="#eeeeee" stroke="none" font-family="Arial" font-size="24px" font-style="normal" font-weight="normal" text-decoration="none" x="600" y="750">UNREGISTERED</text><text fill="#eeeeee" stroke="none" font-family="Arial" font-size="24px" font-style="normal" font-weight="normal" text-decoration="none" x="600" y="780">UNREGISTERED</text><text fill="#eeeeee" stroke="none" font-family="Arial" font-size="24px" font-style="normal" font-weight="normal" text-decoration="none" x="600" y="810">UNREGISTERED</text><text fill="#eeeeee" stroke="none" font-family="Arial" font-size="24px" font-style="normal" font-weight="normal" text-decoration="none" x="600" y="840">UNREGISTERED</text><text fill="#eeeeee" stroke="none" font-family="Arial" font-size="24px" font-style="normal" font-weight="normal" text-decoration="none" x="800" y="0">UNREGISTERED</text><text fill="#eeeeee" stroke="none" font-family="Arial" font-size="24px" font-style="normal" font-weight="normal" text-decoration="none" x="800" y="30">UNREGISTERED</text><text fill="#eeeeee" stroke="none" font-family="Arial" font-size="24px" font-style="normal" font-weight="normal" text-decoration="none" x="800" y="60">UNREGISTERED</text><text fill="#eeeeee" stroke="none" font-family="Arial" font-size="24px" font-style="normal" font-weight="normal" text-decoration="none" x="800" y="90">UNREGISTERED</text><text fill="#eeeeee" stroke="none" font-family="Arial" font-size="24px" font-style="normal" font-weight="normal" text-decoration="none" x="800" y="120">UNREGISTERED</text><text fill="#eeeeee" stroke="none" font-family="Arial" font-size="24px" font-style="normal" font-weight="normal" text-decoration="none" x="800" y="150">UNREGISTERED</text><text fill="#eeeeee" stroke="none" font-family="Arial" font-size="24px" font-style="normal" font-weight="normal" text-decoration="none" x="800" y="180">UNREGISTERED</text><text fill="#eeeeee" stroke="none" font-family="Arial" font-size="24px" font-style="normal" font-weight="normal" text-decoration="none" x="800" y="210">UNREGISTERED</text><text fill="#eeeeee" stroke="none" font-family="Arial" font-size="24px" font-style="normal" font-weight="normal" text-decoration="none" x="800" y="240">UNREGISTERED</text><text fill="#eeeeee" stroke="none" font-family="Arial" font-size="24px" font-style="normal" font-weight="normal" text-decoration="none" x="800" y="270">UNREGISTERED</text><text fill="#eeeeee" stroke="none" font-family="Arial" font-size="24px" font-style="normal" font-weight="normal" text-decoration="none" x="800" y="300">UNREGISTERED</text><text fill="#eeeeee" stroke="none" font-family="Arial" font-size="24px" font-style="normal" font-weight="normal" text-decoration="none" x="800" y="330">UNREGISTERED</text><text fill="#eeeeee" stroke="none" font-family="Arial" font-size="24px" font-style="normal" font-weight="normal" text-decoration="none" x="800" y="360">UNREGISTERED</text><text fill="#eeeeee" stroke="none" font-family="Arial" font-size="24px" font-style="normal" font-weight="normal" text-decoration="none" x="800" y="390">UNREGISTERED</text><text fill="#eeeeee" stroke="none" font-family="Arial" font-size="24px" font-style="normal" font-weight="normal" text-decoration="none" x="800" y="420">UNREGISTERED</text><text fill="#eeeeee" stroke="none" font-family="Arial" font-size="24px" font-style="normal" font-weight="normal" text-decoration="none" x="800" y="450">UNREGISTERED</text><text fill="#eeeeee" stroke="none" font-family="Arial" font-size="24px" font-style="normal" font-weight="normal" text-decoration="none" x="800" y="480">UNREGISTERED</text><text fill="#eeeeee" stroke="none" font-family="Arial" font-size="24px" font-style="normal" font-weight="normal" text-decoration="none" x="800" y="510">UNREGISTERED</text><text fill="#eeeeee" stroke="none" font-family="Arial" font-size="24px" font-style="normal" font-weight="normal" text-decoration="none" x="800" y="540">UNREGISTERED</text><text fill="#eeeeee" stroke="none" font-family="Arial" font-size="24px" font-style="normal" font-weight="normal" text-decoration="none" x="800" y="570">UNREGISTERED</text><text fill="#eeeeee" stroke="none" font-family="Arial" font-size="24px" font-style="normal" font-weight="normal" text-decoration="none" x="800" y="600">UNREGISTERED</text><text fill="#eeeeee" stroke="none" font-family="Arial" font-size="24px" font-style="normal" font-weight="normal" text-decoration="none" x="800" y="630">UNREGISTERED</text><text fill="#eeeeee" stroke="none" font-family="Arial" font-size="24px" font-style="normal" font-weight="normal" text-decoration="none" x="800" y="660">UNREGISTERED</text><text fill="#eeeeee" stroke="none" font-family="Arial" font-size="24px" font-style="normal" font-weight="normal" text-decoration="none" x="800" y="690">UNREGISTERED</text><text fill="#eeeeee" stroke="none" font-family="Arial" font-size="24px" font-style="normal" font-weight="normal" text-decoration="none" x="800" y="720">UNREGISTERED</text><text fill="#eeeeee" stroke="none" font-family="Arial" font-size="24px" font-style="normal" font-weight="normal" text-decoration="none" x="800" y="750">UNREGISTERED</text><text fill="#eeeeee" stroke="none" font-family="Arial" font-size="24px" font-style="normal" font-weight="normal" text-decoration="none" x="800" y="780">UNREGISTERED</text><text fill="#eeeeee" stroke="none" font-family="Arial" font-size="24px" font-style="normal" font-weight="normal" text-decoration="none" x="800" y="810">UNREGISTERED</text><text fill="#eeeeee" stroke="none" font-family="Arial" font-size="24px" font-style="normal" font-weight="normal" text-decoration="none" x="800" y="840">UNREGISTERED</text><g transform="translate(-30,-486) scale(1,1)"><path fill="#C0C0C0" stroke="none" d="M 151 670.5 C 151 644.266472 190.17508 623 238.5 623 C 286.82492 623 326 644.266472 326 670.5 C 326 696.733528 286.82492 718 238.5 718 C 190.17508 718 151 696.733528 151 670.5 Z" opacity="0.2"/></g><g transform="translate(-30,-486) scale(1,1)"><path fill="#ffffff" stroke="none" d="M 144 663.5 C 144 637.266472 183.17508 616 231.5 616 C 279.82492 616 319 637.266472 319 663.5 C 319 689.733528 279.82492 711 231.5 711 C 183.17508 711 144 689.733528 144 663.5 Z"/></g><g transform="translate(-30,-486) scale(1,1)"><path fill="none" stroke="#000000" d="M 144 663.5 C 144 637.266472 183.17508 616 231.5 616 C 279.82492 616 319 637.266472 319 663.5 C 319 689.733528 279.82492 711 231.5 711 C 183.17508 711 144 689.733528 144 663.5 Z" stroke-miterlimit="10"/></g><g transform="translate(-30,-486) scale(1,1)"><g><path fill="none" stroke="none"/><text fill="#000000" stroke="none" font-family="Arial" font-size="13px" font-style="normal" font-weight="bold" text-decoration="none" x="205.5" y="670.5">商城服务</text></g></g><g transform="translate(-30,-486) scale(1,1)"><path fill="#C0C0C0" stroke="none" d="M 311 1030.5 C 311 999.8481936 351.9659408 975 402.5 975 C 453.0340592 975 494 999.8481936 494 1030.5 C 494 1061.1518064 453.0340592 1086 402.5 1086 C 351.9659408 1086 311 1061.1518064 311 1030.5 Z" opacity="0.2"/></g><g transform="translate(-30,-486) scale(1,1)"><path fill="#ffffff" stroke="none" d="M 304 1023.5 C 304 992.8481936 344.9659408 968 395.5 968 C 446.0340592 968 487 992.8481936 487 1023.5 C 487 1054.1518064 446.0340592 1079 395.5 1079 C 344.9659408 1079 304 1054.1518064 304 1023.5 Z"/></g><g transform="translate(-30,-486) scale(1,1)"><path fill="none" stroke="#000000" d="M 304 1023.5 C 304 992.8481936 344.9659408 968 395.5 968 C 446.0340592 968 487 992.8481936 487 1023.5 C 487 1054.1518064 446.0340592 1079 395.5 1079 C 344.9659408 1079 304 1054.1518064 304 1023.5 Z" stroke-miterlimit="10"/></g><g transform="translate(-30,-486) scale(1,1)"><g><path fill="none" stroke="none"/><text fill="#000000" stroke="none" font-family="Arial" font-size="13px" font-style="normal" font-weight="bold" text-decoration="none" x="369.5" y="1030.5">物流服务</text></g></g><g transform="translate(-30,-486) scale(1,1)"><path fill="#ffffff" stroke="none" d="M 56.40935031960227 905.6800000000001 C 56.40935031960227 900.8861679360001 60.295192644547726 897 65.088623046875 897 C 69.88205344920227 897 73.76789577414773 900.8861679360001 73.76789577414773 905.6800000000001 C 73.76789577414773 910.473832064 69.88205344920227 914.36 65.088623046875 914.36 C 60.295192644547726 914.36 56.40935031960227 910.473832064 56.40935031960227 905.6800000000001 Z"/></g><g transform="translate(-30,-486) scale(1,1)"><path fill="none" stroke="#000000" d="M 56.40935031960227 905.6800000000001 C 56.40935031960227 900.8861679360001 60.295192644547726 897 65.088623046875 897 C 69.88205344920227 897 73.76789577414773 900.8861679360001 73.76789577414773 905.6800000000001 C 73.76789577414773 910.473832064 69.88205344920227 914.36 65.088623046875 914.36 C 60.295192644547726 914.36 56.40935031960227 910.473832064 56.40935031960227 905.6800000000001 Z" stroke-miterlimit="10"/></g><g transform="translate(-30,-486) scale(1,1)"><path fill="none" stroke="#000000" d="M 65.088623046875 914.36 L 65.088623046875 931.64" stroke-miterlimit="10"/></g><g transform="translate(-30,-486) scale(1,1)"><path fill="none" stroke="#000000" d="M 55.89880486505682 920.84 L 74.27844122869318 920.84" stroke-miterlimit="10"/></g><g transform="translate(-30,-486) scale(1,1)"><path fill="none" stroke="#000000" d="M 65.088623046875 931.64 L 52.324986683238635 949" stroke-miterlimit="10"/></g><g transform="translate(-30,-486) scale(1,1)"><path fill="none" stroke="#000000" d="M 65.088623046875 931.64 L 77.85225941051137 949" stroke-miterlimit="10"/></g><g transform="translate(-30,-486) scale(1,1)"><g><path fill="none" stroke="none"/><text fill="#000000" stroke="none" font-family="Arial" font-size="13px" font-style="normal" font-weight="bold" text-decoration="none" x="52.088623046875" y="969.5">用户</text></g></g><g transform="translate(-30,-486) scale(1,1)"><path fill="#ffffff" stroke="none" d="M 656.4093503196023 929.6800000000001 C 656.4093503196023 924.8861679360001 660.2951926445477 921 665.088623046875 921 C 669.8820534492023 921 673.7678957741477 924.8861679360001 673.7678957741477 929.6800000000001 C 673.7678957741477 934.473832064 669.8820534492023 938.36 665.088623046875 938.36 C 660.2951926445477 938.36 656.4093503196023 934.473832064 656.4093503196023 929.6800000000001 Z"/></g><g transform="translate(-30,-486) scale(1,1)"><path fill="none" stroke="#000000" d="M 656.4093503196023 929.6800000000001 C 656.4093503196023 924.8861679360001 660.2951926445477 921 665.088623046875 921 C 669.8820534492023 921 673.7678957741477 924.8861679360001 673.7678957741477 929.6800000000001 C 673.7678957741477 934.473832064 669.8820534492023 938.36 665.088623046875 938.36 C 660.2951926445477 938.36 656.4093503196023 934.473832064 656.4093503196023 929.6800000000001 Z" stroke-miterlimit="10"/></g><g transform="translate(-30,-486) scale(1,1)"><path fill="none" stroke="#000000" d="M 665.088623046875 938.36 L 665.088623046875 955.64" stroke-miterlimit="10"/></g><g transform="translate(-30,-486) scale(1,1)"><path fill="none" stroke="#000000" d="M 655.8988048650568 944.84 L 674.2784412286932 944.84" stroke-miterlimit="10"/></g><g transform="translate(-30,-486) scale(1,1)"><path fill="none" stroke="#000000" d="M 665.088623046875 955.64 L 652.3249866832386 973" stroke-miterlimit="10"/></g><g transform="translate(-30,-486) scale(1,1)"><path fill="none" stroke="#000000" d="M 665.088623046875 955.64 L 677.8522594105114 973" stroke-miterlimit="10"/></g><g transform="translate(-30,-486) scale(1,1)"><g><path fill="none" stroke="none"/><text fill="#000000" stroke="none" font-family="Arial" font-size="13px" font-style="normal" font-weight="bold" text-decoration="none" x="645.588623046875" y="993.5">快递员</text></g></g><g transform="translate(-30,-486) scale(1,1)"><path fill="#C0C0C0" stroke="none" d="M 751 832 C 751 796.101488 788.6080768 767 835 767 C 881.3919232 767 919 796.101488 919 832 C 919 867.898512 881.3919232 897 835 897 C 788.6080768 897 751 867.898512 751 832 Z" opacity="0.2"/></g><g transform="translate(-30,-486) scale(1,1)"><path fill="#ffffff" stroke="none" d="M 744 825 C 744 789.101488 781.6080768 760 828 760 C 874.3919232 760 912 789.101488 912 825 C 912 860.898512 874.3919232 890 828 890 C 781.6080768 890 744 860.898512 744 825 Z"/></g><g transform="translate(-30,-486) scale(1,1)"><path fill="none" stroke="#000000" d="M 744 825 C 744 789.101488 781.6080768 760 828 760 C 874.3919232 760 912 789.101488 912 825 C 912 860.898512 874.3919232 890 828 890 C 781.6080768 890 744 860.898512 744 825 Z" stroke-miterlimit="10"/></g><g transform="translate(-30,-486) scale(1,1)"><g><path fill="none" stroke="none"/><text fill="#000000" stroke="none" font-family="Arial" font-size="13px" font-style="normal" font-weight="bold" text-decoration="none" x="802" y="832">地理位置</text></g></g><g transform="translate(-30,-486) scale(1,1)"><path fill="none" stroke="#000000" d="M 691 937 L 748 891" stroke-miterlimit="10"/></g><g transform="translate(-30,-486) scale(1,1)"><g><path fill="none" stroke="none"/><text fill="#000000" stroke="none" font-family="Arial" font-size="13px" font-style="normal" font-weight="normal" text-decoration="none" x="679.6365966796875" y="908.5">+报告位置</text></g></g><g transform="translate(-30,-486) scale(1,1)"><path fill="none" stroke="#000000" d="M 89 895 L 201 712" stroke-miterlimit="10"/></g><g transform="translate(-30,-486) scale(1,1)"><path fill="none" stroke="#000000" d="M 199.2853756695002 722.865544781798 L 201 712 L 192.10447711222068 718.4706779052117" stroke-miterlimit="10"/></g><g transform="translate(-30,-486) scale(1,1)"><g><path fill="none" stroke="none"/><text fill="#000000" stroke="none" font-family="Arial" font-size="13px" font-style="normal" font-weight="normal" text-decoration="none" x="115.6365966796875" y="801.5">+购物</text></g></g><g transform="translate(-30,-486) scale(1,1)"><path fill="none" stroke="#000000" d="M 639 965 L 488 1001" stroke-miterlimit="10"/></g><g transform="translate(-30,-486) scale(1,1)"><path fill="none" stroke="#000000" d="M 496.9093776612609 994.5484118475351 L 488 1001 L 498.8618430924602 1002.7379196283989" stroke-miterlimit="10"/></g><g transform="translate(-30,-486) scale(1,1)"><g><path fill="none" stroke="none"/><text fill="#000000" stroke="none" font-family="Arial" font-size="13px" font-style="normal" font-weight="normal" text-decoration="none" x="523.6365966796875" y="1003.5">+获取收货信息</text></g></g><g transform="translate(-30,-486) scale(1,1)"><path fill="#C0C0C0" stroke="none" d="M 495 1258.5 C 495 1230.0573328 532.3842192 1207 578.5 1207 C 624.6157808 1207 662 1230.0573328 662 1258.5 C 662 1286.9426672 624.6157808 1310 578.5 1310 C 532.3842192 1310 495 1286.9426672 495 1258.5 Z" opacity="0.2"/></g><g transform="translate(-30,-486) scale(1,1)"><path fill="#ffffff" stroke="none" d="M 488 1251.5 C 488 1223.0573328 525.3842192 1200 571.5 1200 C 617.6157808 1200 655 1223.0573328 655 1251.5 C 655 1279.9426672 617.6157808 1303 571.5 1303 C 525.3842192 1303 488 1279.9426672 488 1251.5 Z"/></g><g transform="translate(-30,-486) scale(1,1)"><path fill="none" stroke="#000000" d="M 488 1251.5 C 488 1223.0573328 525.3842192 1200 571.5 1200 C 617.6157808 1200 655 1223.0573328 655 1251.5 C 655 1279.9426672 617.6157808 1303 571.5 1303 C 525.3842192 1303 488 1279.9426672 488 1251.5 Z" stroke-miterlimit="10"/></g><g transform="translate(-30,-486) scale(1,1)"><g><path fill="none" stroke="none"/><text fill="#000000" stroke="none" font-family="Arial" font-size="13px" font-style="normal" font-weight="bold" text-decoration="none" x="545.5" y="1258.5">发单服务</text></g></g><g transform="translate(-30,-486) scale(1,1)"><path fill="none" stroke="#000000" d="M 531 1199 L 439 1080" stroke-miterlimit="10" stroke-dasharray="3"/></g><g transform="translate(-30,-486) scale(1,1)"><path fill="none" stroke="#000000" d="M 448.5461775666469 1085.4653905501846 L 439 1080 L 441.8855521719185 1090.6147816116554" stroke-miterlimit="10"/></g><g transform="translate(-30,-486) scale(1,1)"><g><path fill="none" stroke="none"/><text fill="#000000" stroke="none" font-family="Arial" font-size="13px" font-style="normal" font-weight="normal" text-decoration="none" x="434.37261962890625" y="1163.5">«extend»</text></g></g><g transform="translate(-30,-486) scale(1,1)"><path fill="none" stroke="#000000" d="M 652 1000 L 588 1199" stroke-miterlimit="10"/></g><g transform="translate(-30,-486) scale(1,1)"><path fill="none" stroke="#000000" d="M 587.1040739144613 1188.036546326579 L 588 1199 L 595.1188170271743 1190.614152151773" stroke-miterlimit="10"/></g><g transform="translate(-30,-486) scale(1,1)"><g><path fill="none" stroke="none"/><text fill="#000000" stroke="none" font-family="Arial" font-size="13px" font-style="normal" font-weight="normal" text-decoration="none" x="617.6365966796875" y="1109.5">+抢单</text></g></g><g transform="translate(-30,-486) scale(1,1)"><path fill="#C0C0C0" stroke="none" d="M 279 1271 C 279 1235.6537728 318.3989376 1207 367 1207 C 415.6010624 1207 455 1235.6537728 455 1271 C 455 1306.3462272 415.6010624 1335 367 1335 C 318.3989376 1335 279 1306.3462272 279 1271 Z" opacity="0.2"/></g><g transform="translate(-30,-486) scale(1,1)"><path fill="#ffffff" stroke="none" d="M 272 1264 C 272 1228.6537728 311.3989376 1200 360 1200 C 408.6010624 1200 448 1228.6537728 448 1264 C 448 1299.3462272 408.6010624 1328 360 1328 C 311.3989376 1328 272 1299.3462272 272 1264 Z"/></g><g transform="translate(-30,-486) scale(1,1)"><path fill="none" stroke="#000000" d="M 272 1264 C 272 1228.6537728 311.3989376 1200 360 1200 C 408.6010624 1200 448 1228.6537728 448 1264 C 448 1299.3462272 408.6010624 1328 360 1328 C 311.3989376 1328 272 1299.3462272 272 1264 Z" stroke-miterlimit="10"/></g><g transform="translate(-30,-486) scale(1,1)"><g><path fill="none" stroke="none"/><text fill="#000000" stroke="none" font-family="Arial" font-size="13px" font-style="normal" font-weight="bold" text-decoration="none" x="321" y="1271">快递跟踪服务</text></g></g><g transform="translate(-30,-486) scale(1,1)"><path fill="none" stroke="#000000" d="M 369 1199 L 387 1080" stroke-miterlimit="10" stroke-dasharray="3"/></g><g transform="translate(-30,-486) scale(1,1)"><path fill="none" stroke="#000000" d="M 389.64225037841123 1090.6779451645805 L 387 1080 L 381.3179057251544 1089.4188005951803" stroke-miterlimit="10"/></g><g transform="translate(-30,-486) scale(1,1)"><g><path fill="none" stroke="none"/><text fill="#000000" stroke="none" font-family="Arial" font-size="13px" font-style="normal" font-weight="normal" text-decoration="none" x="321.37261962890625" y="1140.5">«extend»</text></g></g><g transform="translate(-30,-486) scale(1,1)"><path fill="none" stroke="#000000" d="M 91 964 L 302 1199" stroke-miterlimit="10"/></g><g transform="translate(-30,-486) scale(1,1)"><path fill="none" stroke="#000000" d="M 292.078201142923 1194.250483452002 L 302 1199 L 298.34264410503886 1188.625813388145" stroke-miterlimit="10"/></g><g transform="translate(-30,-486) scale(1,1)"><g><path fill="none" stroke="none"/><text fill="#000000" stroke="none" font-family="Arial" font-size="13px" font-style="normal" font-weight="normal" text-decoration="none" x="190.6365966796875" y="1076.5">+订阅</text></g></g><g transform="translate(-30,-486) scale(1,1)"><path fill="#C0C0C0" stroke="none" d="M 303 871 C 303 844.4903296 337.0263552 823 379 823 C 420.9736448 823 455 844.4903296 455 871 C 455 897.5096704 420.9736448 919 379 919 C 337.0263552 919 303 897.5096704 303 871 Z" opacity="0.2"/></g><g transform="translate(-30,-486) scale(1,1)"><path fill="#ffffff" stroke="none" d="M 296 864 C 296 837.4903296 330.0263552 816 372 816 C 413.9736448 816 448 837.4903296 448 864 C 448 890.5096704 413.9736448 912 372 912 C 330.0263552 912 296 890.5096704 296 864 Z"/></g><g transform="translate(-30,-486) scale(1,1)"><path fill="none" stroke="#000000" d="M 296 864 C 296 837.4903296 330.0263552 816 372 816 C 413.9736448 816 448 837.4903296 448 864 C 448 890.5096704 413.9736448 912 372 912 C 330.0263552 912 296 890.5096704 296 864 Z" stroke-miterlimit="10"/></g><g transform="translate(-30,-486) scale(1,1)"><g><path fill="none" stroke="none"/><text fill="#000000" stroke="none" font-family="Arial" font-size="13px" font-style="normal" font-weight="bold" text-decoration="none" x="346" y="871">用户服务</text></g></g><g transform="translate(-30,-486) scale(1,1)"><path fill="none" stroke="#000000" d="M 338 815 L 265 712" stroke-miterlimit="10" stroke-dasharray="3"/></g><g transform="translate(-30,-486) scale(1,1)"><path fill="none" stroke="#000000" d="M 274.3108496906706 717.8573097952677 L 265 712 L 267.4420214791376 722.7255084306261" stroke-miterlimit="10"/></g><g transform="translate(-30,-486) scale(1,1)"><g><path fill="none" stroke="none"/><text fill="#000000" stroke="none" font-family="Arial" font-size="13px" font-style="normal" font-weight="normal" text-decoration="none" x="249.37261962890625" y="786.5">«extend»</text></g></g><g transform="translate(-30,-486) scale(1,1)"><path fill="#C0C0C0" stroke="none" d="M 439 559 C 439 528.0720512 474.81721600000003 503 519 503 C 563.182784 503 599 528.0720512 599 559 C 599 589.9279488 563.182784 615 519 615 C 474.81721600000003 615 439 589.9279488 439 559 Z" opacity="0.2"/></g><g transform="translate(-30,-486) scale(1,1)"><path fill="#ffffff" stroke="none" d="M 432 552 C 432 521.0720512 467.81721600000003 496 512 496 C 556.182784 496 592 521.0720512 592 552 C 592 582.9279488 556.182784 608 512 608 C 467.81721600000003 608 432 582.9279488 432 552 Z"/></g><g transform="translate(-30,-486) scale(1,1)"><path fill="none" stroke="#000000" d="M 432 552 C 432 521.0720512 467.81721600000003 496 512 496 C 556.182784 496 592 521.0720512 592 552 C 592 582.9279488 556.182784 608 512 608 C 467.81721600000003 608 432 582.9279488 432 552 Z" stroke-miterlimit="10"/></g><g transform="translate(-30,-486) scale(1,1)"><g><path fill="none" stroke="none"/><text fill="#000000" stroke="none" font-family="Arial" font-size="13px" font-style="normal" font-weight="bold" text-decoration="none" x="486" y="559">订单服务</text></g></g><g transform="translate(-30,-486) scale(1,1)"><path fill="none" stroke="#000000" d="M 431 584 L 320 628" stroke-miterlimit="10" stroke-dasharray="3"/></g><g transform="translate(-30,-486) scale(1,1)"><path fill="none" stroke="#000000" d="M 327.8962894940048 620.3417618065988 L 320 628 L 330.9987120059187 628.1683276889271" stroke-miterlimit="10"/></g><g transform="translate(-30,-486) scale(1,1)"><g><path fill="none" stroke="none"/><text fill="#000000" stroke="none" font-family="Arial" font-size="13px" font-style="normal" font-weight="normal" text-decoration="none" x="359.37261962890625" y="639.5">«extend»</text></g></g></g></svg>